@startuml DER
' Orientación y estilo
left to right direction
skinparam packageStyle rectangle
skinparam shadowing false
hide methods

'=============================
' Paquetes de Dimensiones
'=============================
package "Geografía" {
  entity Provincia {
    Provincia_ID <<auto>> : int
    --
    Provincia_Nombre : nvarchar(255)
  }

  entity Localidad {
    Localidad_ID <<auto>> : int
    --
    Localidad_Nombre : nvarchar(255)
    Localidad_Provincia <<FK>>
  }

  entity Domicilio {
    Domicilio_ID <<auto>> : bigint
    --
    Domicilio_Direccion : nvarchar(255)
    Domicilio_Localidad <<FK>>
  }

  Provincia ||--|{ Localidad
  Localidad ||--o{ Domicilio
}

package "Productos" {
  entity Modelo {
    Modelo_Codigo : bigint
    --
    Modelo_Nombre : nvarchar(255)
    Modelo_Descripcion : nvarchar(255)
    Modelo_Precio : decimal(18,2)
  }

  entity Medida {
    Medida_ID <<auto>> : int
    --
    Medida_Alto : decimal(18,2)
    Medida_Ancho : decimal(18,2)
    Medida_Profundidad : decimal(18,2)
    Medida_Precio : decimal(18,2)
  }

  entity Material {
    Material_ID <<auto>> : bigint
    --
    Material_Tipo : nvarchar(255)
    Material_Nombre : nvarchar(255)
    Material_Descripcion : nvarchar(255)
    Material_Precio : decimal(38,2)
  }

  entity Tela {
    Tela_ID <<FK>> : int
    --
    Tela_Color : nvarchar(255)
    Tela_Textura : nvarchar(255)
  }

  entity Relleno {
    Relleno_ID <<FK>> : int
    --
    Relleno_Densidad : decimal(38,2)
  }

  entity Madera {
    Madera_ID <<FK>> : int
    --
    Madera_Color : nvarchar(255)
    Madera_Dureza : nvarchar(255)
  }

  entity Sillon {
    Sillon_Codigo : bigint
    --
    Sillon_Modelo <<FK>>
    Sillon_Medida <<FK>>
    Sillon_Madera <<FK>>
    Sillon_Tela <<FK>>
    Sillon_Relleno <<FK>>
  }

  Modelo    ||--o{ Sillon
  Medida    ||--o{ Sillon
  Material  ||--o{ Tela
  Material  ||--o{ Relleno
  Material  ||--o{ Madera
  Tela      ||--o{ Sillon
  Relleno   ||--o{ Sillon
  Madera    ||--o{ Sillon
}

'=============================
' Paquetes de Personas
'=============================
package "Clientes y Sucursales" {
  entity Cliente {
    Cliente_ID <<auto>> : bigint
    --
    Cliente_DNI : bigint
    Cliente_Domicilio : bigint
    Cliente_Nombre : nvarchar(255)
    Cliente_Apellido : nvarchar(255)
    Cliente_Telefono : nvarchar(255)
    Cliente_FechaNacimiento : datetime2(6)
    Cliente_Mail : nvarchar(255)
  }

  entity Proveedor {
    Proveedor_ID <<auto>> : bigint
    --
    Proveedor_CUIT : nvarchar(255)
    Proveedor_Razon_Social : nvarchar(255)
    Proveedor_Domicilio : int
    Proveedor_Telefono : nvarchar(255)
    Proveedor_Mail : nvarchar(255)
  }

  entity Sucursal {
    Sucursal_Nro : bigint
    --
    Sucursal_Domicilio <<FK>>
    Sucursal_Telefono : nvarchar(255)
    Sucursal_Mail : nvarchar(255)
  }

  Domicilio ||--o{ Cliente
  Domicilio ||--o{ Proveedor
  Domicilio ||--o{ Sucursal
}

'=============================
' Paquetes de Transacciones
'=============================
package "Compras" {
  entity Compra {
    Compra_Nro : decimal(18,0)
    --
    Compra_Sucursal <<FK>>
    Compra_Proveedor <<FK>>
    Compra_Fecha : datetime2(6)
    Compra_Total : decimal(18,2)
  }
  entity Detalle_Compra {
    Detalle_Compra_Nro <<FK>> : decimal
    Detalle_Compra_Material <<FK>> : bigint
    --
    Detalle_Compra_Precio : decimal(18,2)
    Detalle_Compra_Cantidad : decimal(18,0)
    Detalle_Compra_Subtotal : decimal(18,2)
  }

  Proveedor ||--o{ Compra
  Sucursal  ||--o{ Compra
  Compra    ||--|{ Detalle_Compra
  Material  ||--o{ Detalle_Compra
}

package "Ventas y Pedidos" {
  entity Pedido {
    Pedido_Numero : decimal(18,0)
    --
    Pedido_Sucursal <<FK>>
    Pedido_Cliente <<FK>>
    Pedido_Fecha : datetime2(6)
    Pedido_Estado : nvarchar(255)
    Pedido_Total : decimal(18,2)
  }
  entity Pedido_Detalle {
    Pedido_Numero <<FK>> : decimal(18,0)
    Sillon_Modelo <<FK>> : bigint
    --
    Detalle_Pedido_Cantidad : bigint
    Detalle_Pedido_Precio : decimal(18,2)
    Detalle_Pedido_Subtotal : decimal(18,2)
  }
  entity Pedido_Cancelacion {
    Cancelacion_Pedido <<FK>> : decimal(18,0)
    --
    Cancelacion_Fecha : datetime2(6)
    Cancelacion_Motivo : varchar(255)
  }

  Cliente ||--o{ Pedido
  Sucursal ||--o{ Pedido
  Pedido   ||--|{ Pedido_Detalle
  Sillon   ||--o{ Pedido_Detalle
  Pedido   ||--o| Pedido_Cancelacion
}

package "Facturación" {
  entity Factura {
    Factura_Numero : bigint
    --
    Factura_Cliente <<FK>>
    Factura_Sucursal <<FK>>
    Factura_Pedido <<FK>>
    Factura_Fecha : datetime2(6)
    Factura_Total : decimal(38,2)
  }
  entity Detalle_Factura {
    Detalle_Factura_Numero <<FK>> : bigint
    Detalle_Factura_Sillon <<FK>> : bigint
    --
    Detalle_Factura_Precio : decimal(18,2)
    Detalle_Factura_Cantidad : decimal(18,0)
    Detalle_Factura_SubTotal : decimal(18,2)
  }
  entity Envio {
    Envio_Nro : decimal(18,0)
    --
    Envio_Factura <<FK>>
    Envio_Fecha_Programada : datetime2(6)
    Envio_Fecha_Entrega : datetime2(6)
    Envio_Importe_Translado : decimal(18,2)
    Envio_Importe_Subida : decimal(18,2)
    Envio_Total : decimal(18,2)
  }

  Cliente ||--o{ Factura
  Sucursal ||--o{ Factura
  Pedido   ||--o| Factura
  Factura  ||--|{ Detalle_Factura
  Sillon   ||--o{ Detalle_Factura
  Factura  ||--|| Envio
}

@enduml